<svg width="59" height="80" viewBox="0 0 59 80" fill="none" xmlns="http://www.w3.org/2000/svg">
<g clip-path="url(#clip0)">
<path d="M43.3274 33.5322V58.4572H15.1405V33.5322H3.86572L29.2339 3.04053L54.6022 33.5322H43.3274Z" fill="#5DDA3E"/>
<path d="M55.6392 36.3211C54.7902 36.3211 53.95 35.9714 53.3703 35.2944L29.2812 7.16071L5.195 35.2944C4.16738 36.4945 2.32878 36.6651 1.07573 35.6916C-0.177327 34.7097 -0.361767 32.9502 0.659999 31.7557L27.0122 0.975602C28.1277 -0.325201 30.4318 -0.325201 31.5472 0.975602L57.9023 31.7557C58.927 32.9502 58.7397 34.7125 57.4866 35.6916C56.945 36.1141 56.2921 36.3211 55.6392 36.3211Z" fill="#5DDA3E"/>
<path d="M14.6425 61.4982C13.0235 61.4982 11.7148 60.2478 11.7148 58.7008V33.524C11.7148 31.977 13.0235 30.7266 14.6425 30.7266C16.2615 30.7266 17.5702 31.977 17.5702 33.524V58.7008C17.5702 60.2478 16.2615 61.4982 14.6425 61.4982Z" fill="#5DDA3E"/>
<path d="M43.9195 61.4979H14.6425C13.0235 61.4979 11.7148 60.2475 11.7148 58.7005C11.7148 57.1535 13.0235 55.9031 14.6425 55.9031H43.9195C45.5385 55.9031 46.8472 57.1535 46.8472 58.7005C46.8472 60.2475 45.5385 61.4979 43.9195 61.4979Z" fill="#5DDA3E"/>
<path d="M43.9199 61.4982C42.3009 61.4982 40.9922 60.2478 40.9922 58.7008V33.524C40.9922 31.977 42.3009 30.7266 43.9199 30.7266C45.5389 30.7266 46.8476 31.977 46.8476 33.524V58.7008C46.8476 60.2478 45.5389 61.4982 43.9199 61.4982Z" fill="#5DDA3E"/>
<path d="M14.6429 36.3214H2.92917C1.31015 36.3214 0.00146484 35.071 0.00146484 33.524C0.00146484 31.977 1.31015 30.7266 2.92917 30.7266H14.6429C16.2619 30.7266 17.5706 31.977 17.5706 33.524C17.5706 35.071 16.2619 36.3214 14.6429 36.3214Z" fill="#5DDA3E"/>
<path d="M55.6365 36.3214H43.9199C42.3009 36.3214 40.9922 35.071 40.9922 33.524C40.9922 31.977 42.3009 30.7266 43.9199 30.7266H55.6365C57.2555 30.7266 58.5642 31.977 58.5642 33.524C58.5642 35.071 57.2555 36.3214 55.6365 36.3214Z" fill="#5DDA3E"/>
<path d="M34.8722 39.2014H23.5975C22.0387 39.2014 20.7788 37.9222 20.7788 36.3397C20.7788 34.7572 22.0387 33.478 23.5975 33.478H34.8722C36.431 33.478 37.6909 34.7572 37.6909 36.3397C37.6909 37.9222 36.431 39.2014 34.8722 39.2014Z" fill="#2E8019"/>
<path d="M29.2342 44.9222C27.6755 44.9222 26.4155 43.643 26.4155 42.0605V30.6194C26.4155 29.0369 27.6755 27.7577 29.2342 27.7577C30.793 27.7577 32.0529 29.0369 32.0529 30.6194V42.0605C32.0529 43.643 30.793 44.9222 29.2342 44.9222Z" fill="#2E8019"/>
<path d="M44.0758 65.1582H14.4892C12.9454 65.1582 11.6938 66.4097 11.6938 67.9536C11.6938 69.4974 12.9454 70.7489 14.4892 70.7489H44.0758C45.6196 70.7489 46.8711 69.4974 46.8711 67.9536C46.8711 66.4097 45.6196 65.1582 44.0758 65.1582Z" fill="#4DD82B"/>
<path d="M44.0758 74.4093H14.4892C12.9454 74.4093 11.6938 75.6608 11.6938 77.2047C11.6938 78.7485 12.9454 80 14.4892 80H44.0758C45.6196 80 46.8711 78.7485 46.8711 77.2047C46.8711 75.6608 45.6196 74.4093 44.0758 74.4093Z" fill="#4DD82B"/>
</g>
<defs>
<clipPath id="clip0">
<rect width="59" height="80" fill="white"/>
</clipPath>
</defs>
</svg>
