<svg width="154" height="64" viewBox="0 0 154 64" fill="none" xmlns="http://www.w3.org/2000/svg">
<path d="M80.1733 52.3636H85.6193V41.8551H85.7855C86.5398 43.4915 88.1889 45.3196 91.3594 45.3196C95.8338 45.3196 99.3239 41.7784 99.3239 35.2074C99.3239 28.4574 95.6804 25.108 91.3722 25.108C88.0866 25.108 86.5142 27.0639 85.7855 28.6619H85.5426V25.3636H80.1733V52.3636ZM85.5043 35.1818C85.5043 31.679 86.9872 29.4418 89.6335 29.4418C92.331 29.4418 93.7628 31.7812 93.7628 35.1818C93.7628 38.608 92.3054 40.9858 89.6335 40.9858C87.0128 40.9858 85.5043 38.6847 85.5043 35.1818ZM111.827 45.3835C117.784 45.3835 121.491 41.3054 121.491 35.2585C121.491 29.1733 117.784 25.108 111.827 25.108C105.869 25.108 102.162 29.1733 102.162 35.2585C102.162 41.3054 105.869 45.3835 111.827 45.3835ZM111.852 41.1648C109.104 41.1648 107.697 38.6463 107.697 35.2202C107.697 31.794 109.104 29.2628 111.852 29.2628C114.55 29.2628 115.956 31.794 115.956 35.2202C115.956 38.6463 114.55 41.1648 111.852 41.1648ZM142.672 25.3636H136.906L132.841 39.4134H132.636L128.558 25.3636H122.805L129.67 45H135.806L142.672 25.3636ZM145.458 45H150.904V25.3636H145.458V45ZM148.194 22.8324C149.818 22.8324 151.147 21.5923 151.147 20.071C151.147 18.5625 149.818 17.3224 148.194 17.3224C146.583 17.3224 145.254 18.5625 145.254 20.071C145.254 21.5923 146.583 22.8324 148.194 22.8324Z" fill="#025FAC"/>
<rect width="64" height="64" fill="#025FAC"/>
<rect x="17" y="13" width="6" height="38" fill="white"/>
<rect x="28" y="19" width="6" height="19" transform="rotate(-90 28 19)" fill="white"/>
<rect x="28" y="35" width="6" height="19" transform="rotate(-90 28 35)" fill="white"/>
<rect x="41" y="13" width="6" height="22" fill="white"/>
</svg>
